<?xml version="1.0" encoding="UTF-8" standalone="no"?>
<!DOCTYPE svg PUBLIC "-//W3C//DTD SVG 1.1//EN" "http://www.w3.org/Graphics/SVG/1.1/DTD/svg11.dtd">
<svg width="100%" height="100%" viewBox="0 0 140 144" version="1.1" xmlns="http://www.w3.org/2000/svg" xmlns:xlink="http://www.w3.org/1999/xlink" xml:space="preserve" xmlns:serif="http://www.serif.com/" style="fill-rule:evenodd;clip-rule:evenodd;stroke-linejoin:round;stroke-miterlimit:2;">
    <g id="Artboard1" transform="matrix(1,0,0,1,-60.92,-56.7654)">
        <rect x="60.92" y="56.765" width="139.081" height="143.065" style="fill:none;"/>
        <clipPath id="_clip1">
            <rect x="60.92" y="56.765" width="139.081" height="143.065"/>
        </clipPath>
        <g clip-path="url(#_clip1)">
            <g id="_-00ac4dff" serif:id="#00ac4dff" transform="matrix(1,0,0,1,0.92,0.765431)">
                <path d="M106.45,151.07C109.44,152.92 112.46,154.73 115.54,156.43C115.34,156.72 114.94,157.29 114.73,157.58C106.83,169.9 94.58,178.41 82.93,186.88C75.83,191.58 68.62,196.17 60.92,199.83C65.63,195.51 71.14,192.16 75.84,187.83C81.56,182.54 86.91,176.88 92.15,171.12C97.55,164.93 103.14,158.7 106.45,151.07ZM96.58,143.55C98.72,145.39 100.87,147.22 103.08,148.99C100.66,153.17 98.3,157.44 95.12,161.12C90.79,166.19 86.74,171.64 81.24,175.52C83.99,170.62 87.64,166.27 90.18,161.25C92.91,155.58 94.61,149.5 96.58,143.55ZM117.74,143.79C118.27,141.3 121.25,141.48 123.19,141.82C127.16,142.59 131.24,142.81 135.12,143.97C136.78,146.1 137.88,148.6 139.19,150.95C138.92,151.05 138.38,151.25 138.11,151.35C133.14,151.34 128.11,151.7 123.18,150.95C119.92,150.53 116.23,147.33 117.74,143.79ZM98.57,137.2C104.91,138.37 111.66,136.68 117.7,139.36C115.22,142.55 115.52,146.43 116.66,150.07C110.14,146.53 103.74,142.59 98.57,137.2ZM183.572,117.331C183.803,117.749 184.077,118.241 184.308,118.659L184.61,119.21C187.53,123.87 187.03,130.23 183.31,134.29C181.6,135.41 179.51,135.65 177.58,136.17L177.473,136.201C175.231,136.847 173.056,137.683 170.89,138.53C164.1,141.29 157.17,143.66 150.36,146.35C147.41,147.38 144.44,148.64 141.29,148.75C139.94,147.68 138.78,146.41 137.6,145.17C142.29,143.58 147.23,142.3 151.27,139.29C158.21,134.24 164.03,127.72 168.73,120.56C171.28,121.59 173.77,122.78 176.28,123.92C178.66,121.6 181.08,119.3 183.27,116.78L183.572,117.331ZM150.16,122.04C155.3,119.86 161.05,118.28 166.6,119.85C160.08,126.85 154.33,135.13 145.48,139.39C139.49,141.32 133.04,140.28 126.99,139.16C123.83,138.66 121.88,135.95 119.76,133.85C122.75,133.84 125.93,134.1 128.68,132.65C135.82,129.1 142.8,125.16 150.16,122.04ZM115.52,119.53C118.31,119.22 121.11,119.71 123.89,119.95C123.97,122.69 124.04,125.43 124.12,128.17C119.73,129.59 115.18,130.98 110.51,130.43C111.69,126.67 112.18,122.09 115.52,119.53ZM108.35,115.24C109.99,114.76 111.42,115.94 112.86,116.5C110.79,120.81 109.02,125.26 107.67,129.86C103.58,127.62 99.61,125.17 95.89,122.36C99.63,119.38 103.5,116.12 108.35,115.24ZM132.14,119.05C133.74,118.81 135.35,118.58 136.96,118.34C137.82,119.8 138.69,121.25 139.57,122.7C134.78,123.65 130.38,125.8 126.05,127.97C126.64,125.33 127.07,122.63 128.16,120.15C129.41,119.56 130.78,119.28 132.14,119.05ZM181.512,78.353C187.015,80.022 192.665,81.13 198.38,81.74C199.99,88.12 199.95,95.36 200,101.98C200.044,107.8 197.771,111.381 195.165,116.122C195.165,116.122 192.77,120.23 191.69,122.05C190.13,118.86 189.33,115.71 187,113C186.29,112.21 185,111 184.08,110.57C181.263,109.253 177.67,115.87 174.48,118.55C171.19,116.26 167.46,114.73 163.55,113.89C162.02,109.76 160.38,105.66 158.33,101.75C162.46,97.35 165.18,91.84 165.53,85.76C170.13,85.65 174.71,85.04 179.14,83.75C180.66,85.16 182.17,86.58 183.69,88C179.44,88.88 174.04,88.36 171.05,92.07C169.12,94.39 171.43,97.18 173.07,98.9C175.25,100.86 178.25,103.04 181.33,102.25C185.19,100.17 187.16,95.97 189.61,92.53L189.546,92.416C186.824,87.596 183.887,82.903 180.98,78.19L181.512,78.353ZM139.73,121.97C140.07,117.16 143.41,113.61 147.29,111.14C148.14,113.25 149.03,115.36 149.69,117.55C146.4,119.09 143.12,120.65 139.73,121.97ZM94.02,105.03C95.59,101.19 100.59,101.48 104.04,101.18C107.49,100.78 110.19,103.16 112.79,105.01C110.94,107.65 109.62,111.07 106.44,112.38C102.23,114.26 98.06,116.28 94.32,119.01C94.06,114.39 92.59,109.58 94.02,105.03ZM151.52,116.36C153.79,113.62 156.81,111.72 159.95,110.15C160.24,111.73 160.52,113.32 160.8,114.91C157.74,115.59 154.66,116.21 151.52,116.36ZM147.67,111.24C150.4,108.47 153.5,106.11 156.7,103.91C157.42,105.15 158.13,106.4 158.84,107.65C155.51,109.88 151.9,112.38 147.67,111.24ZM108.47,92.51C108.31,90.74 110.1,89.81 111.12,88.68C113.69,92.56 116.21,96.47 118.78,100.35C118.48,100.46 117.89,100.67 117.59,100.77C116.16,101.27 114.71,101.74 113.21,101.98C110.2,99.84 108.4,96.19 108.47,92.51ZM114.9,87.96C120.4,89.09 126.21,89.12 131.37,91.57C135.24,93.25 138.28,96.31 140.91,99.54C140.43,99.71 139.47,100.03 139,100.19C136.42,99.5 133.94,98.52 131.34,97.92C128.04,97.2 124.59,97.69 121.3,96.91C118.31,94.67 116.64,91.16 114.9,87.96ZM95.2,99.53C98.41,96.43 101.78,93.49 105.3,90.76C105.29,93.36 105.31,95.96 105.42,98.56C101.98,98.47 98.57,98.89 95.2,99.53ZM173.53,92.97C174,91 177,91.224 179.01,91.37C181.49,91.55 186,92 185.87,93.97C185.695,96.619 182.24,98.92 179.18,98.67C176.65,97.61 173.043,95.011 173.53,92.97ZM178,93.97C177,95 178,96 179.06,96.3C179.783,96.505 181.306,96.232 182.05,96.13C183,96 183,95 182,93.83C181.141,92.825 178.917,93.025 178,93.97ZM193.82,87.98C193.35,90.65 195.01,92.91 196.25,95.09C196.64,92.62 197.33,89.94 195.93,87.64C195.4,87.72 194.35,87.89 193.82,87.98ZM75.59,89.72C83.15,86.69 90.39,82.76 98.3,80.71C94.05,84.87 89.03,88.15 84.97,92.53C81.87,91.53 78.72,90.64 75.59,89.72ZM150.38,83.21C155.27,84.67 160.29,86.63 163.06,91.24C159.15,91.57 155.3,90.74 151.85,88.89C151.36,87 150.86,85.11 150.38,83.21ZM62.99,89.35C65.19,85.06 67.94,79.99 73.09,78.94C78.58,78.23 84.13,79.01 89.62,79.38C83.01,82.97 75.79,85.24 68.7,87.67C67,88.253 65.47,88.52 62.99,89.35ZM133.39,79.74C134.67,79.56 135.95,79.4 137.23,79.24C140.12,78.87 142.95,80.13 145.33,81.64C147.28,82.92 147.29,85.56 147.99,87.56C147.53,87.47 146.59,87.28 146.12,87.19C143.69,86.63 141.02,86.48 138.94,84.97C136.91,83.43 135.24,81.48 133.39,79.74ZM163.87,73.54C168.62,75.29 172.72,78.28 176.58,81.48C173.73,82.07 170.9,82.71 168.07,83.41C166.23,80.32 164.77,77.02 163.87,73.54ZM146.9,64.29C151,66.4 155.67,67.69 159.09,70.92C161.89,74.2 162.69,78.61 164.04,82.6C160.89,82.44 157.35,83.2 154.51,81.55C151.26,77.48 150.34,72.09 148.1,67.45C147.69,66.4 147.29,65.35 146.9,64.29ZM128.57,58.96C132.83,59.82 137.32,60.51 140.99,63.02C143.52,64.78 145.66,67.03 147.72,69.31C148.11,72.66 148.3,76.03 148.04,79.4C144.94,77.86 141.87,75.93 140.25,72.75C137.27,67.43 132.68,63.37 128.57,58.96ZM84.52,65.4C86.3,64.25 88.35,65.34 90.16,65.82C96.22,68.05 102.22,70.76 107.37,74.73C106.76,74.74 105.54,74.76 104.93,74.78C94.83,75.89 84.68,74.78 74.56,74.48C77.47,71.06 80.5,67.54 84.52,65.4ZM104.62,56.81C117.88,56.15 131.52,62.86 138.49,74.29C135.68,74.67 132.67,75.25 130,73.95C124.77,71.91 121.43,67.16 117,63.96C113.23,61 108.73,59.22 104.62,56.81ZM91.24,61.59C92.2,58.89 96.16,59.18 98.51,59.64C106.93,62.61 115.25,66.9 121.18,73.76C118.61,73.43 116.02,73.23 113.45,72.82C109.66,72.07 106.66,69.45 103.34,67.66C99.47,65.3 95.2,63.76 91.24,61.59Z" style="fill:white;fill-rule:nonzero;"/>
            </g>
        </g>
    </g>
</svg>
