<?xml version="1.0" encoding="utf-8"?>
<!-- Generator: Adobe Illustrator 22.1.0, SVG Export Plug-In . SVG Version: 6.00 Build 0)  -->
<svg version="1.1" id="Layer_1" xmlns="http://www.w3.org/2000/svg" xmlns:xlink="http://www.w3.org/1999/xlink" x="0px" y="0px"
	 viewBox="0 0 1058 1058" style="enable-background:new 0 0 1058 1058;" xml:space="preserve">
<style type="text/css">
	.st0{fill:#C69C6D;}
</style>
<image style="overflow:visible;" width="128" height="128" xlink:href="../Initial_Assets/Roller_Beetle_(skill).png"  transform="matrix(8.2656 0 0 8.2656 0 0)">
</image>
<path class="st0" d="M366.5,190.5c0,0,130-11,206,76c-15,19-176,122-132,302c-60-75-28-176,28-236
	C484.5,313.5,378.5,190.5,366.5,190.5z"/>
<path class="st0" d="M205.5,675.5c0,0,96-13,156-86c66,2,79,5,79,5S325.5,707.5,205.5,675.5z"/>
<path class="st0" d="M569.5,289.5c0,0,27.5-17.5,38.5-8.5c6,10-20.7,31.7-27.5,36.5c-14.2,10.2-64,47-75,96s-24,131-3,186
	c11,31-28,48-51,63c-14.5,9.5-63.4,39.8-127,56c-37.2,9.5-83,5-127,5c29-7,83-16.4,134-35c55.6-20.3,109.2-48.5,129-73
	c6-10-1-17-3-26c-1.7-7.4-15-68,5-168C486.5,341.5,569.5,289.5,569.5,289.5z"/>
<path class="st0" d="M558.5,382.5c0,0,27-78,63-87c11-2-5,18,50,49c42,26,112,119,122,154s17,174-67,253c-4,6-59-44-48-52
	s46-41,52-53c2-4-5-4-18-2s-48-6-60-17c-3-3-7-7-7-7s13,4,39-1s53-16,59-36s-2-64-47-76s-98,46-54,97l6,6c0,0-23,6-36-26
	c-7-12-1-39-1-46s-21-8-26-10s-23-9-27-35c11,3,42,27,54,8s34-54,66-37c-10.7-16.6-26.2-35.1-67.9-24.8c-1.9,0.5-3.8,1.3-5.4,2.5
	c-48.8,34.5-52.3-26-27.7-46.7c8-7,66-14,155,93c-18-70-94-114-120-127S562.5,377.5,558.5,382.5z"/>
<path class="st0" d="M580.5,641.5c0,0-23-35-60-20s-52,107-11,135s110,27,155,52s62-36,49-51s-31-40-68-38c-6,1-7,7-7,7s20,0,28,14
	c23,42-72,31-137-17c-21-15-7-57,3-68S570.5,637.5,580.5,641.5z"/>
<path class="st0" d="M440.5,786.5c0,0,59-30,110,14c22,19-18,50-26,48S464.5,822.5,440.5,786.5z"/>
<path class="st0" d="M391.5,836.5c0,0,85-12,99,19c0.5,8.5-24,36-55,28S395.5,845.5,391.5,836.5z"/>
</svg>
