<?xml version="1.0" encoding="utf-8"?>
<!-- Generator: Adobe Illustrator 22.1.0, SVG Export Plug-In . SVG Version: 6.00 Build 0)  -->
<svg version="1.1" id="Layer_1" xmlns="http://www.w3.org/2000/svg" xmlns:xlink="http://www.w3.org/1999/xlink" x="0px" y="0px"
	 viewBox="0 0 884 884" style="enable-background:new 0 0 884 884;" xml:space="preserve">
<style type="text/css">
	.st0{fill:#29ABE2;}
</style>
<image style="overflow:visible;" width="128" height="128" xlink:href="../Initial_Assets/Jackal_(skill).png"  transform="matrix(6.9063 0 0 6.9063 0 0)">
</image>
<path class="st0" d="M337.5,192.5c0,0,76-52,91-62c0,0,0,0,0,0c9-6,20-12,33-19c-1,16-6,32-10,46c-10,34-56,129-64,137
	c-3,4,9,2,44,2s74,45,97,66s81,29,120,38s93,14,90,32s6,43-57,95c-28,35-39,61-42,72s-48,7-91,11s-77-1-124,33
	c-36.7,26.5-68,45-97,48c3-4,9-11,12-15c13-16,26-36-10-10c-38,24-43,23-57,28c-4.2,1.6-12,3-21,3c7-11,23-26,32-36
	c26-31,74-76,86-83c10-5,18-12-3,27c-1,2-10,12,72-18c32-14,80-18,114-21s60-33,55-48c10,8,20,26,21,39s37-29,24-25
	c-10.2,3.1-14,2-18.7,3.2c-1.5,0.4-3.1-0.4-3.4-1.9c-1.2-5.8-0.3-14.5,14.1-19.3c18-6-9-13-20-9s0-43,15-64c6-9,3-8-40-18
	s-86-24-100-29s-27,4-30,12s-40-6-64-40s12-17,24-11s42,9,9-11s-105-30-125-34s14-45.6,28-66c8.1-11.8,15-19,18.3-26.3
	c-12.3,1.3-16.3,3.3-33.3,8.3c-38,12-49,16-58.7,18.2c9.7-11.2,24.7-21.2,33.7-27.2C335.5,194.5,337.5,192.5,337.5,192.5z"/>
<path class="st0" d="M574.5,528.5c0,0-20,13-27,26c-2.5,4.5-3.5,4.5-6.2,8.6c-1.3-4.1-1.8-7.1-2.3-10.1c-1-6,1.5-39.5,17.5-42.5
	c10.9-2,27.6-0.4,28.5,6C585.5,519.5,582.8,523.4,574.5,528.5z"/>
<path class="st0" d="M291.5,481.5c0,0-30,26-104,35c11,11,54,40,74,20c11.1-11.1,11-12,11.8-14.2c-1.8,1.2-4.8,2.2-4.8,2.2
	c-9,3-41-2-2-12C287.5,507.5,291.5,481.5,291.5,481.5z"/>
<path class="st0" d="M205.5,577.5c0,0,67-29,87-44c3.1-2.3,10-7,16.5-11c-4.5,13-24.4,34.3-34.5,41c-12,8,7,5,17,0c-5,9-35,22-59,24
	c-18,1.5-19,2-40-5C200.5,579.5,202.5,579,205.5,577.5z"/>
<path class="st0" d="M349.5,536.5c0,0-64,54-96,61c19,8,59,24,76,8s15-19,16-22c-8,4-49,18-15-12
	C341.5,562.5,349.5,536.5,349.5,536.5z"/>
<path class="st0" d="M178.5,702.5c0,0,24,15,35,5c11-13,12-24,36-34c-20,37-5,69-27,68C203.5,738.5,194.5,745.5,178.5,702.5z"/>
<path class="st0" d="M368.5,388.5c0,0,58-2,88,27s-32,25-48,19S388.5,406.5,368.5,388.5z"/>
<path class="st0" d="M132.5,283.5c0,0,67-23,90-36c25-11,48,0,52,18c1,4,0,12-1.3,19.3c-18.7-12.3-25.7-12.3-33.7-13.3
	C212.5,267.5,197.5,305.5,132.5,283.5z"/>
</svg>
