<?xml version="1.0" encoding="utf-8"?>
<!-- Generator: Adobe Illustrator 22.1.0, SVG Export Plug-In . SVG Version: 6.00 Build 0)  -->
<svg version="1.1" id="Layer_1" xmlns="http://www.w3.org/2000/svg" xmlns:xlink="http://www.w3.org/1999/xlink" x="0px" y="0px"
	 viewBox="0 0 1154 1154" style="enable-background:new 0 0 1154 1154;" xml:space="preserve">
<style type="text/css">
	.st0{fill:#2E3192;}
	.st1{fill:#2E3192;stroke:#2E3192;stroke-miterlimit:10;}
</style>
<image style="overflow:visible;" width="128" height="128" xlink:href="../Initial_Assets/Griffon_(skill).png"  transform="matrix(9.0156 0 0 9.0156 0 0)">
</image>
<path class="st0" d="M470.5,152.5c0,0-31,153,153,291s174,134,176,185c-18-24-85-53-95-28s28,50,55,44s16-23,16-23s16-1,9,28
	s-13,46-43,22s-97-79-111-85c34-1,106-15,113-18s-18-13-81-46s-116-47-180-145S439.5,211.5,470.5,152.5z"/>
<path class="st0" d="M639.5,335.5c0,0-34,36-19,86c7-16,4-33,21-13s153,130,190,219s-6,105-26,93c3,19,0,16,30,30s46,28,55,43
	c6-39,16-88-23-156c-39-68-150-207-210-254C645.5,374.5,638.5,351.5,639.5,335.5z"/>
<path class="st0" d="M841.5,769.5c0,0-59,27-70,69c-2,7-39-24-79-27c45,36,74,60,70,99c23-31,24-50,48-90
	C818.5,807.5,841.5,769.5,841.5,769.5z"/>
<path class="st0" d="M706.5,667.5c0,0-3,69-74,70c31,32,65,43,56,66c39-16,75-64,73-76c8,9-4,41-16,56c30-4,52-3,50-75
	C795.5,699.5,738.5,693.5,706.5,667.5z"/>
<path class="st1" d="M422.5,281.5c0,0,1,34-34,129c-30,63,92,122,118,124s95-15,149,12c-31-32-38-35-109-69s-104-139-110-183
	c-7-32-11-37-14-44C423.5,268.5,422.5,281.5,422.5,281.5z"/>
<path class="st0" d="M405.5,523.5c0,0-62-10-110,49s-64,40-89,17c3,26,35,75,70,41s49.5-45.5,75-71
	C358.5,553.5,365.5,543.5,405.5,523.5z"/>
<path class="st0" d="M589.5,556.5c0,0-128,93-137,194c44-23,98-81,164-62c-8-17-37-34-76-26c-6,2,7-18,16-35
	S580.5,588.5,589.5,556.5z"/>
<path class="st0" d="M586.5,732.5c0,0,22,98-52,102c15,10,52,70,86,100c18,18,31-7,37-22c11-26,51-55,19-65S623.5,767.5,586.5,732.5
	z"/>
<path class="st0" d="M727.5,861.5c0,0-41,71-70,86c-22,13,7,62,28,35S733.5,910.5,727.5,861.5z"/>
<path class="st0" d="M550.5,719.5c0,0-86,48-90,96c27-12,60-31,78-33S553.5,742.5,550.5,719.5z"/>
</svg>
