<?xml version="1.0" encoding="utf-8"?>
<!-- Generator: Adobe Illustrator 23.0.3, SVG Export Plug-In . SVG Version: 6.00 Build 0)  -->
<svg version="1.1" id="Layer_1" xmlns="http://www.w3.org/2000/svg" xmlns:xlink="http://www.w3.org/1999/xlink" x="0px" y="0px"
	 viewBox="0 0 1154 1154" style="enable-background:new 0 0 1154 1154;" xml:space="preserve">
<style type="text/css">
	.st0{fill:#FFFFFF;enable-background:new    ;}
	.st1{fill:#FFFFFF;}
</style>
<image style="overflow:visible;enable-background:new    ;" width="128" height="128" xlink:href="../Initial_Assets/Skyscale_(skill).png"  transform="matrix(9.0156 0 0 9.0156 0 0)">
</image>
<path class="st0" d="M931.7,182C955.1,243.2,911,432.6,669,430.8c-101.7-0.7-117.8,64.9-68.7,64.9c44.7,0,106.7,4.8,128.2,34.4
	c-122.3-35.1-119.2-18.2-172.2-12.8c-69,7.1-143.4-75.9-33-169.3C612.7,272.3,873.9,367.7,931.7,182z"/>
<path class="st0" d="M631.8,473.2c59.2-36.5,145.9-34.7,200.2,21.5c54.2,56.2,53.8,67.5,87.5,96.5c26.5,22.8-16.6,74.2-51.7,100.2
	c4.2-44.3-6-58.3,24.2-97.2c-17.3-15.5-19.6,5.5-34.9-0.9c-15.3-6.4-36.4-15-36.9-29.7c-0.4-14.7-25.7-38.1-61.4-40.3
	c-6.8,30.9,23.2,42.1,35.2,71.4c-38.1-19.6-56.1-44.6-55.3-68.7C739.8,495.9,658,494.2,631.8,473.2z"/>
<path class="st0" d="M811.7,577c9.1-2.9,35.4,17.2,44.7,35.9C838.8,601.4,814.4,597.8,811.7,577z"/>
<path class="st0" d="M816.8,645.6c-11,2.6-16.4,33.3-22.3,41.8c-7.7,11.1,16.4,23.1,23,11.4S819,663.8,816.8,645.6z"/>
<path class="st0" d="M774,633.1c3.1,15.2,1.2,40,1.8,51.6c17.5,0,19.3-17.7,20.3-26.5C799.5,627.3,790.9,633.1,774,633.1z"/>
<path class="st0" d="M852,680.2c-16,39.8,11.6,73.6-23.7,86.3c-80,29-208.2-52-247.3-94.2c-34.7-37.3-31.3-86-1.2-99.2
	c36.2-15.8,68.3-5.5,79.2,31.8c19.8,68.2,88.3,138.3,127.7,132.7C826,732,810.5,702.5,852,680.2z"/>
<path class="st0" d="M554.5,572.9c20.1-14.6,28.2-14.6,64.1-25.7c-31.7-24-83.3-11.7-86.2-2.7C539.8,552.3,545.7,573.2,554.5,572.9z
	"/>
<path class="st0" d="M517.5,560c10.5,7.8,21.3,16.6,30.3,26.7c2,13.2-7.7,28.7-13.8,44.7c-16.8,3.8-31.2-6.2-47.5-10.5
	C490.3,592.7,493,577,517.5,560z"/>
<path class="st0" d="M481.3,637.4c20.8,19.6,43.6,10.1,58.1,9c-0.4,15.2,9.1,25.8,8.1,36.8c-14.1,10.6-44.7,23.1-61.1,18.7
	C477.2,668.3,475.5,648,481.3,637.4z"/>
<path class="st0" d="M504.4,719c23-1.4,42.8-18.9,53.4-28.9c9.2,12.1,26.4,21.2,35.4,32.9c-12.3,12.8-11.8,33.6-31.2,49.6
	C545.2,756,509.7,740,504.4,719z"/>
<path class="st0" d="M577,778c22.2-9.7,18.3-22.7,36.3-37.5c9.2,12.1,17.8,17.8,26.8,29.5c-12.3,12.8-10.6,28.2-22.8,45.5
	C604.8,800.7,587.5,799.2,577,778z"/>
<path class="st0" d="M630.3,828.8c13.2-16.4,6.5-30,24.5-44.8c18.3,9.8,25.2,43.2,32.2,57.7c-9.8,5.2-10.2,12.5-25.5,20.5
	C649,847.3,643.3,838,630.3,828.8z"/>
<path class="st0" d="M671.8,890.2c4.3-14,9.4-15.3,20.3-24c18.3,9.8,14.4,59.7,6,78.2C692.7,916.8,684.8,899.3,671.8,890.2z"/>
<path class="st1" d="M340.7,402.3c40-23,102-21.3,119-8.7c-14.4,14.5-14.7,26.5-21.7,64.7C417.7,452.7,382.3,416,340.7,402.3z"/>
<path class="st1" d="M383.3,434c17.9,11.4,8,59-40,74.1c-43.1,13.5-65.3,14.9-113,14.9C246.7,486.9,350.1,412.8,383.3,434z"/>
<path class="st1" d="M198.8,663.2c85.1-38,137.8-94.2,130.2-130C253.9,523,227.9,581.4,198.8,663.2z"/>
<path class="st1" d="M218,754.3c85.1-38,93-81.7,87.3-131C214.7,654,231.9,699.8,218,754.3z"/>
<path class="st1" d="M266.7,817.7c38.3-28.3,70-86.3,48-112.3C240,735.7,261.2,805.3,266.7,817.7z"/>
<path class="st1" d="M365.3,871.3c3-56.8,2.7-87.3-27.7-113.7C279.3,839.7,353.9,864.1,365.3,871.3z"/>
<path class="st1" d="M381.9,813.2c21.3,36,74.4,61.8,100.9,86c-65.6,4-70.9-37.8-79.3-10.9C399.5,900.7,370.6,859.4,381.9,813.2z"/>
</svg>
