<?xml version="1.0" encoding="utf-8"?>
<!-- Generator: Adobe Illustrator 23.0.2, SVG Export Plug-In . SVG Version: 6.00 Build 0)  -->
<svg version="1.1" id="Layer_1" xmlns="http://www.w3.org/2000/svg" xmlns:xlink="http://www.w3.org/1999/xlink" x="0px" y="0px"
	 viewBox="0 0 884 884" style="enable-background:new 0 0 884 884;" xml:space="preserve">
<style type="text/css">
	.st0{fill:#B2F7EE;enable-background:new    ;}
	.st1{fill:#B2F7EE;}
</style>
<image style="overflow:visible;enable-background:new    ;" width="128" height="128" xlink:href="../../../../../Desktop/Warclaw_(skill).png"  transform="matrix(6.9063 0 0 6.9063 0 0)">
</image>
<path class="st0" d="M539,373.7c33.8,1.1,118.3,50.1,127.5,122.6c16.5,18.6,52.2,46.4,14.6,93.6c-31.6-52.5-23.7-73.9-25.3-91.4
	c-33.2-55-109.5-66.5-116.9-78.5C537.7,400.5,539,373.7,539,373.7z"/>
<path class="st0" d="M551.7,443.5c29.5,8,70,15.2,85.5,68.8C573,487.2,579.3,465.1,551.7,443.5z"/>
<path class="st0" d="M662.5,627.2c7.9,30.1-23.8,44.5-22.2,71.5c-13.8,0.7-47.5,2-67.9-5.9C629.7,683.3,643.5,646.7,662.5,627.2z"/>
<path class="st0" d="M640,564.8c11,98.3-71.3,116.3-96.5,116.7c-22.6,0.3-37.3-2.6-20-28c11.4-16.8,18.9-27.6,40.2-26
	C616,631.5,622.7,599.5,640,564.8z"/>
<path class="st0" d="M330.8,696.8c6.1,13.1,79.6,37.7,135.9-24.1c24.8-32.3,46.4-55.9,50.6-71c0.1-34.2-1.6-63.3,3-67
	c-41.8-5.1-69,16.8-71.9,22.5c10.1,2,9.3,2.8,6,7.7c-3.3,4.8-33.1,30-42.7,57c15.9-3.5,20.3-19.4,31.1-18.8
	C436.3,634.2,380.6,699.2,330.8,696.8z"/>
<path class="st0" d="M391.5,515.2c24.8,0,28.4,8.7,50.5-11c19.7-17.5,53-8,71,4.5c-40.8,7.8-33.4-3.2-71,22.7
	C425,543,391.5,515.2,391.5,515.2z"/>
<path class="st0" d="M476.7,465.2c-38.2,14.7-42.5,32.7-57.8,32.7s-30-14.3-45.5-27.3c24.5,6.7,43.4,12.5,53.3-0.8
	C437.7,455,453.8,451.3,476.7,465.2z"/>
<path class="st0" d="M228.5,349c43.8-24,128.5,45.8,136.5,60.7c-5.3,7.7-11.7,7.3-24.8,12.3C321.8,399,275.8,367,228.5,349z"/>
<path class="st0" d="M348,428.8c0.8-2.9,33.3-6.1,38.6,0c3.4,4-6,12.2-23.9,12.8C348.6,442.1,347.2,431.7,348,428.8z"/>
<path class="st0" d="M145.3,356.5c66.2-26.8,155.8,35.2,188,96c-17.7,3-36.6,6.5-54.2,17.8C259.8,459.5,213.8,401.5,145.3,356.5z"/>
<path class="st1" d="M446.1,432c31,5.9,75.5-8.6,73.8-50.6c-1.7-42-44.2-68.2-86.3-73.1c-54-6.3-89.1-68.7-121.8-73
	c-14.8-2-24.1,0.1-28.5,14.3c-10.8-22.6,12.7-29.1,27.1-27.8c44.3,4.2,45.2,27.2,123.8,29.8c28.3,1,72.8-6.7,98.7-38
	c-91,19.7-147.9-62.3-207.3-62.3c-55.8-0.1-73.9,46.2-71.3,79c5.7,73,123.3,158.7,155.3,156.3c32-2.3,73.1-17.3,82.4,6.4
	C499,410.6,478,422.8,446.1,432z"/>
</svg>
