<?xml version="1.0" encoding="utf-8"?>
<!-- Generator: Adobe Illustrator 22.1.0, SVG Export Plug-In . SVG Version: 6.00 Build 0)  -->
<svg version="1.1" id="Layer_1" xmlns="http://www.w3.org/2000/svg" xmlns:xlink="http://www.w3.org/1999/xlink" x="0px" y="0px"
	 viewBox="0 0 431 431" style="enable-background:new 0 0 431 431;" xml:space="preserve">
<g>
	<path d="M68.8,96.1c16.3-11.1,65-12.4,103.5,4C233,126,275.2,172.6,317,185c29.7,8,35-14,41.1-21.7c5.7,27.4,1.4,46-4.1,68.2
		s-9.9,28.4-16.8,36.3c1.8-23,2-56-3.8-57.3s-11.6,15-19.5,20.3c-4.3-6-3.8-18.8-11.8-20.8s-16.9-4.8-21.3-9.1
		c-5.4-5.4-16.8-22.8-20.5-20.4c-3.2,2,12.4,25.9,17.6,41.1c-49.3-49.3-66.7-76.1-120.6-107.6C125.9,95.5,89.1,92,68.8,96.1z"/>
	<path d="M223.9,196.4c28.1-0.5,33.1,8.9,49.5,25.8C264.4,235.2,227.6,207.6,223.9,196.4z"/>
	<path d="M72.5,152.7c63.5-40.5,137.5,10,146.8,20.3c3.3,3.4-8.1,19.6-13.6,16.3C152.3,147.7,115,151.3,72.5,152.7z"/>
	<path d="M117.1,173.8c7-2.8,43.8-0.3,44.6,10.4c-11.7,1-22.7,5.5-25.7,8.4C132.3,187.4,127.3,180.6,117.1,173.8z"/>
	<path d="M69.4,196.4c12.8-7.2,37.3-7.3,45.7-3.1c-8,3.3-16.5,8.2-22.5,15C84.8,200.5,76.9,199.2,69.4,196.4z"/>
	<path d="M326.8,263.3c10.7,33.2-9.8,52.5-21,57.2c-7.8-9.2-1.5-13.7-7-17.2s-63.6-13.2-75,3.3c-2.2-7-7.6-13.8-17.1-13.7
		c-24,0.7-44,12.2-68.1,26.2c9.4-32,31.8-48,50.5-59.3c0.3,3.3,2.8,12.9,7.7,12.9c37.4-0.6,36.7,5.1,43.2,2.6
		c5.5-2.1,4.9-10.5,11.1-15.8c6.7,11.2,15.8,22.7,20.5,22.7s12.8-8,16.3-15.2c4.7,12,7.5,19.2,14.2,19.2S318,277.3,326.8,263.3z"/>
</g>
</svg>
