<?xml version="1.0" encoding="utf-8"?>
<!-- Generator: Adobe Illustrator 22.1.0, SVG Export Plug-In . SVG Version: 6.00 Build 0)  -->
<svg version="1.1" id="Layer_1" xmlns="http://www.w3.org/2000/svg" xmlns:xlink="http://www.w3.org/1999/xlink" x="0px" y="0px"
	 viewBox="0 0 431 431" style="enable-background:new 0 0 431 431;" xml:space="preserve">
<g>
	<path d="M226.8,155.3c17.7-6.2,49.3-18.1,78.4,6c22.5,18.7,21.4,40.2,18,43.3c-4.1,3.6-15.8,2.8-19.6,0.1
		c-5.1-3.7,3.2-14.7-11.6-22.5c-24.8-13-45.4,11.9-47.3,20.9c-4.2,19-4,47.3-14.5,47.9c-8.5,0.5,2.6-24.9-10-29.3
		c-7.2-2.5,8.6,25.4-4.7,51.4c-5.3,10.3,22.5-2,28.9-16.5c7.1-16.3-6.2-36.7,14.2-57.1c16-16,29.5-11.3,30.5,1
		c1.2,15-19.7,13.1-17.1,17.2s27.3-5.9,44.6,1c36,14.4,36,32.4,40.2,38.7s7.7-33.5-3.1-63c-13.8-37.8-46.5-55.1-49.4-69.1
		c-1.1-5.1-9-6.4-7.8-2.3c2.7,9.2-8.8,14.6-15.2,14.6c-13.2,0-14.5-10.8-10.6-18.4c6.8-13.4,7.7,5.1,13.2-4.5
		c3.8-6.6-1.2-10.4-8.5-17s-12.1-8.1-14.3-5.7c-3.5,3.7,6,8.4-0.9,15.5c-4.4,4.4-8.7,1.2-13.7-0.2c-5-1.5-10.4-3.1-10.7-9.4
		c-0.5-9.9,9.6-6.5,9.6-12.1c0-3.3-4.6-5.3-14.4-5.3c-9.8,0-16.1-0.5-17.7,7c-2.3,10.8,10.8-2.3,6.9,12.2
		c-2.2,8.2-11.6,13.4-21.5,4.6c-4.8-4.3-9.2-13.7-1.1-18.8c3.6-2.3-3.1-6.6-7.3-3.5c-11.5,8.5-47.9-2.7-83.3,16.2
		C79.3,113,55.3,144.9,62.7,143s19.3-15.3,55.8-1.9c17.5,6.4,30.1,31.2,34.8,29.9s-12.2-13.9-1.2-24.3c9-8.5,22.1-3.9,22.5,18.8
		c0.4,22.9-21.1,37.5-28.7,55.7c-4.7,11.3,7.4,39.4,10.4,28.3c7.4-28.2,38.6-40.9,31.6-43.8c-12.3-5.1-20.9,22.9-26.9,17
		c-7.4-7.4,11.9-28.1,21.5-45c4.5-8,6.3-42.1-21.3-47.1c-15.4-2.8-16.1,10.6-22.4,10.1c-5.9-0.4-15.9-9.2-17-14.5
		c-1-5,14.4-18.7,43.6-17.6C203.2,109.7,209.5,124.6,226.8,155.3z"/>
	<path d="M199.3,149.9c6.6-5.7,16.2,27,10.8,42.5C208.4,182.2,191.4,156.7,199.3,149.9z"/>
	<path d="M212.6,194.5c6.9-15.6,30.4-35.2,37-25.4C256.1,178.6,229.2,183.6,212.6,194.5z"/>
	<path d="M196.7,229.9c-1.6,15.6,5.7,20.8,2.3,26.8c-8.4,11-11,10.9-15.4,23.3c-5.2,14.3-12.8,75.4-56,73.8
		c-18-0.6-28.9-14-30.1-27.4c-0.9-9.7,10.2-35.8,37.3-50.8c-11,20.8-8,21.5-10.5,27.1c-2.3,5.2-20,4.9-20,23.9
		c0,8.8,10.5,20,20.6,20c28.4,0,43.9-38.3,52.2-81.1c1.6-8.2-3.8-6.1-2.2-15C176.4,242.5,187.6,242.8,196.7,229.9z"/>
</g>
</svg>
