<?xml version="1.0" encoding="utf-8"?>
<!-- Generator: Adobe Illustrator 22.1.0, SVG Export Plug-In . SVG Version: 6.00 Build 0)  -->
<svg version="1.1" id="Layer_1" xmlns="http://www.w3.org/2000/svg" xmlns:xlink="http://www.w3.org/1999/xlink" x="0px" y="0px"
	 viewBox="0 0 1106 1106" style="enable-background:new 0 0 1106 1106;" xml:space="preserve">
<g>
	<path d="M578.5,589.5c0,0-111-32-241,110c-7,7-4,36,106,10c16-4,15-26,19-33C488.5,626.5,617.5,597.5,578.5,589.5z"/>
	<path d="M588.5,900.5c0,0-63,14-40,32s94,8,107-4c14-12,26-16,33-18S673.5,885.5,588.5,900.5z"/>
	<path d="M632.5,842.5c0,0-62,41,14,47s70,1,72-1s-2.5-30.5,14-49c16.5-15.5,45-50,80-54c28-1,17-22-30-18S647.5,829.5,632.5,842.5z
		"/>
	<path d="M738.5,653.5c0,0-53-69-91,0s28,93,51,88s118-34,125,1c2,10-16,10-36,7c-19-2-47,4-78,20c-15,8-127,22-130-58
		s55-119,98-122s97,39,94,78S740.5,656.5,738.5,653.5z"/>
	<path d="M834.5,623.5c0,0,59,21,25,59s-31,55-21,53s66-31,73-120c4-49-72-109-98-127s-25-8-50-24s-248-268-485-319
		c4,26,94,272,340,332c17,5,58,7-23-28s-152-118-179-162c40,7,179,46,290,190c8,11,6,20-7,31s-13,46,75,105c9,7,25,3-7-22
		s-30-64-8-66s32-1,36,51C796.5,600.5,827.5,620.5,834.5,623.5z"/>
	<path d="M444.5,501.5c0,0-93-22-150,49s8,15,32,2s83-15,100-20S465.5,508.5,444.5,501.5z"/>
	<path d="M380.5,481.5c0,0,69-73,153-12c9,8-45,18-52,22c-8,4-24-1-33-5C426.5,478.5,367.5,506.5,380.5,481.5z"/>
</g>
</svg>
